<?xml version="1.0" standalone="no"?>
<!DOCTYPE svg PUBLIC "-//W3C//DTD SVG 20010904//EN"
 "http://www.w3.org/TR/2001/REC-SVG-20010904/DTD/svg10.dtd">
<svg version="1.0" xmlns="http://www.w3.org/2000/svg"
 width="266.000000pt" height="266.000000pt" viewBox="0 0 266.000000 266.000000"
 preserveAspectRatio="xMidYMid meet">
<metadata>
Created by potrace 1.11, written by Peter Selinger 2001-2013
</metadata>
<g transform="translate(0.000000,266.000000) scale(0.100000,-0.100000)"
fill="#000000" stroke="none">
<path d="M1500 2555 c-24 -47 -60 -112 -81 -143 -21 -31 -37 -57 -36 -58 1 -1
45 -4 97 -7 52 -3 114 -12 137 -20 l41 -15 -8 26 c-12 44 -81 241 -94 274
l-13 30 -43 -87z"/>
<path d="M874 2523 c4 -10 14 -69 23 -133 9 -63 18 -116 19 -118 1 -2 29 11
63 27 33 17 72 32 86 33 23 2 15 13 -77 105 -100 101 -127 121 -114 86z"/>
<path d="M2180 2308 c-41 -16 -119 -44 -173 -63 -54 -18 -98 -36 -98 -40 0 -3
38 -44 84 -91 l85 -84 51 80 c28 44 51 83 51 85 0 2 19 34 41 70 23 36 40 67
38 69 -2 2 -38 -9 -79 -26z"/>
<path d="M353 2209 c22 -32 96 -162 127 -224 14 -27 26 -52 27 -54 1 -2 15 12
32 30 16 19 48 54 71 79 l41 45 -48 22 c-43 21 -234 110 -258 122 -5 2 -2 -7
8 -20z"/>
<path d="M1263 2179 c-205 -19 -367 -94 -514 -239 -168 -167 -247 -346 -254
-581 -7 -227 75 -437 234 -602 334 -347 882 -346 1214 2 126 132 198 278 225
451 4 25 6 95 6 155 -2 138 -24 226 -91 360 -119 235 -357 408 -610 444 -105
15 -133 16 -210 10z"/>
<path d="M2210 1845 c0 -2 10 -28 23 -57 13 -29 32 -83 43 -120 10 -38 21 -68
25 -68 6 0 69 56 164 149 76 74 75 78 -31 85 -166 13 -224 16 -224 11z"/>
<path d="M354 1591 c-5 -5 -70 -29 -144 -55 -74 -26 -142 -49 -150 -52 -7 -3
22 -17 67 -33 44 -15 113 -46 154 -68 l74 -39 -1 85 c0 47 3 104 7 126 8 44 7
49 -7 36z"/>
<path d="M2300 1234 c-1 -55 -3 -116 -6 -138 l-6 -39 45 7 c76 12 286 81 279
92 -4 5 -41 27 -82 49 -113 58 -179 94 -206 112 l-24 15 0 -98z"/>
<path d="M335 903 c-52 -84 -112 -163 -132 -176 -22 -14 -14 -25 25 -32 76
-14 262 2 262 24 0 10 -77 206 -93 237 -13 25 -13 24 -62 -53z"/>
<path d="M2131 700 c-24 -39 -56 -87 -73 -106 l-30 -34 36 -15 c33 -14 195
-55 217 -55 5 0 7 12 3 28 -7 24 -100 242 -108 249 -2 2 -22 -28 -45 -67z"/>
<path d="M629 492 c0 -4 -2 -16 -4 -27 -6 -29 -18 -184 -18 -225 1 -75 -2 -74
71 -20 102 76 162 136 162 164 0 6 -19 17 -42 23 -24 7 -71 30 -105 52 -35 22
-63 37 -64 33z"/>
<path d="M1765 381 c-64 -40 -119 -63 -129 -54 -3 4 -6 4 -6 1 0 -3 46 -37
103 -75 56 -37 108 -74 115 -80 26 -25 34 -14 27 35 -11 79 -36 197 -43 204
-4 4 -34 -10 -67 -31z"/>
<path d="M1145 286 c2 -6 6 -24 9 -41 2 -16 14 -77 25 -135 12 -58 21 -106 21
-107 0 -2 8 -3 18 -3 11 0 23 13 31 33 34 85 69 185 76 215 l7 33 -37 -4 c-20
-3 -62 1 -95 8 -42 9 -57 9 -55 1z"/>
</g>
</svg>
